<svg xmlns="http://www.w3.org/2000/svg" viewBox="0 0 199.7 184.2"><style>@media(prefers-color-scheme:dark){svg{fill:#fff}}</style><path d="M189.5 36.8c.2 2.8.0 5.1-.6 6.8L153 162c-.6 2.1-2 3.7-4.2 5-2.2 1.2-4.4 1.9-6.7 1.9H31.4c-9.6.0-15.3-2.8-17.3-8.4-.8-2.2-.8-3.9.1-5.2.9-1.2 2.4-1.8 4.6-1.8H123c7.4.0 12.6-1.4 15.4-4.1s5.7-8.9 8.6-18.4l32.9-108.6c1.8-5.9 1-11.1-2.2-15.6S169.9.0 164 0H72.7c-1 0-3.1.4-6.1 1.1l.1-.4C64.5.2 62.6.0 61 .1s-3 .5-4.3 1.4-2.4 1.8-3.2 2.8S52 6.5 51.2 8.1s-1.4 3-1.9 4.3-1.1 2.7-1.8 4.2c-.7 1.5-1.3 2.7-2 3.7-.5.6-1.2 1.5-2 2.5s-1.6 2-2.2 2.8-.9 1.5-1.1 2.2-.1 1.8.2 3.2c.3 1.4.4 2.4.4 3.1-.3 3-1.4 6.9-3.3 11.6s-3.6 8.1-5.1 10.1c-.3.4-1.2 1.3-2.6 2.7-1.4 1.4-2.3 2.6-2.6 3.7-.3.4-.3 1.5-.1 3.4.3 1.8.4 3.1.3 3.8-.3 2.7-1.3 6.3-3 10.8s-3.4 8.2-5 11c-.2.5-.9 1.4-2 2.8-1.1 1.4-1.8 2.5-2 3.4-.2.6-.1 1.8.1 3.4.2 1.6.2 2.8-.1 3.6-.6 3-1.8 6.7-3.6 11-1.8 4.3-3.6 7.9-5.4 11-.5.8-1.1 1.7-2 2.8-.8 1.1-1.5 2-2 2.8s-.8 1.6-1 2.5c-.1.5.0 1.3.4 2.3.3 1.1.4 1.9.4 2.6-.1 1.1-.2 2.6-.5 4.4-.2 1.8-.4 2.9-.4 3.2-1.8 4.8-1.7 9.9.2 15.2 2.2 6.2 6.2 11.5 11.9 15.8s11.7 6.4 17.8 6.4h110.7c5.2.0 10.1-1.7 14.7-5.2s7.7-7.8 9.2-12.9l33-108.6c1.8-5.8 1-10.9-2.2-15.5C194.9 39.7 192.6 38 189.5 36.8zm-129.9 86L73.8 80s7 0 10.8.0 28.8-1.7 25.4 17.5c-3.4 19.2-18.8 25.2-36.8 25.4S59.6 122.8 59.6 122.8zm19-6c4.7-.1 18.9-2.9 22.1-17.1S89.2 86.3 89.2 86.3h-8.9l-10.2 30.5C70.2 116.9 74 116.9 78.6 116.8zM75.3 68.7 89 26.2h9.8l.8 34 23.6-34h9.9l-13.6 42.5h-7.1l12.5-35.4-24.5 35.4h-6.8l-.8-35L82 68.7H75.3z"/></svg>